<svg fill="none" stroke="currentColor" viewBox="0 0 24 24"
     xmlns="http://www.w3.org/2000/svg">
    <g xmlns="http://www.w3.org/2000/svg">
        <path class="st0" d="M4.9,22.3C4.4,23,4,23.6,3.5,24.2" />
        <path class="st0"
              d="M15.8,5.2c-0.7,0.1-1.4,0.2-2.1,0.4c-0.7,0.2-1.4,0.6-2,0.9C11.1,7,10.5,7.4,9.9,7.9c-0.6,0.6-1.1,1.3-1.6,2   c-0.8,1.4-1.3,3-1.4,4.7c0,0.1,0,0.2,0,0.3s0,0.2,0,0.3c0,1.7-0.4,3.4-1,4.9" />
        <path class="st0"
              d="M26.3,16.1c0.1-0.4,0.1-0.8,0.1-1.3c0-0.4,0-0.9-0.1-1.3C26,11.4,25,9.4,23.4,7.9c-0.8-0.8-1.7-1.4-2.8-1.9   c-0.8-0.4-1.7-0.6-2.6-0.7" />
        <path class="st0"
              d="M22.8,29.8c0.5-1,1-2.1,1.4-3.1c0.5-1.2,0.9-2.5,1.2-3.7c0.3-1.2,0.5-2.4,0.7-3.6" />
        <path class="st0"
              d="M26,7.6c0.2,0.2,0.3,0.5,0.5,0.7c0.4,0.5,0.7,1.1,0.9,1.7c0.1,0.1,0.1,0.2,0.2,0.3c0.2,0.6,0.4,1.2,0.6,1.8   c0,0.2,0.1,0.3,0.1,0.5c0.1,0.5,0.2,1.1,0.2,1.6c0,0.2,0,0.4,0,0.6s0,0.4,0,0.6c0,2.9-0.4,5.8-1.2,8.5c-0.4,1.4-0.9,2.8-1.4,4.2" />
        <path class="st0"
              d="M10.7,4.7c0.6-0.4,1.3-0.7,2-0.9s1.4-0.4,2.1-0.5C15.4,3.1,16.1,3,16.7,3c0.2,0,0.3,0,0.4,0   c0.9,0,1.7,0.2,2.6,0.4c1,0.3,1.9,0.6,2.8,1.1" />
        <path class="st0"
              d="M2.3,22.2c0.5-0.7,1-1.4,1.4-2.2c0.7-1.5,1.2-3.3,1.2-5.1s0.4-3.6,1.2-5.1C6.4,9,6.9,8.2,7.4,7.6" />
        <path class="st0" d="M7.8,25.6c-0.4,0.6-0.9,1.1-1.4,1.7" />
        <path class="st0"
              d="M15.1,9.8c-0.8,0.2-1.5,0.6-2,1.2c-1.1,1-1.8,2.4-1.8,4s-0.2,3.1-0.6,4.6c-0.2,0.8-0.5,1.6-0.8,2.4" />
        <path class="st0" d="M22,15.3c0-0.2,0-0.3,0-0.5s0-0.3,0-0.5c-0.2-1.7-1.1-3.3-2.6-4.1" />
        <path class="st0"
              d="M17.1,31c0.5-0.7,0.9-1.5,1.4-2.3c0.4-0.8,0.8-1.6,1.2-2.4c0.4-0.9,0.7-1.7,1-2.6c0.3-1,0.6-2,0.8-3   c0.1-0.7,0.3-1.4,0.4-2.1" />
        <path class="st0" d="M21.3,28.1c-0.4,0.9-0.9,1.8-1.4,2.6" />
        <path class="st0"
              d="M24.1,13.7c0,0.3,0.1,0.5,0.1,0.8c0,0.2,0,0.3,0,0.4c0,0.4,0,0.7,0,1.1c-0.1,2-0.3,4-0.8,5.9   c-0.3,1.2-0.6,2.3-1,3.4" />
        <path class="st0"
              d="M16.7,7.3c0.8,0,1.5,0.1,2.2,0.3c0.9,0.3,1.8,0.8,2.6,1.4c0.2,0.2,0.4,0.3,0.5,0.5c0.1,0.1,0.1,0.1,0.2,0.2   c0.2,0.2,0.3,0.3,0.4,0.5c0.2,0.2,0.3,0.4,0.4,0.6l0,0" />
        <path class="st0"
              d="M8.4,19.8c0.5-1.6,0.8-3.2,0.8-4.9s0.6-3.3,1.6-4.6c0.5-0.6,1.1-1.2,1.8-1.7c0.6-0.4,1.3-0.7,2-1" />
        <path class="st0" d="M4.8,25.8c0.5-0.5,0.9-1.1,1.4-1.7c0.4-0.6,0.8-1.3,1.2-1.9" />
        <path class="st0"
              d="M30.7,14.2c0,0.2,0,0.4,0,0.6c0,0.2,0,0.4,0,0.6c0,0.4,0,0.8,0,1.2s0,0.8-0.1,1.2c0,0.5-0.1,0.9-0.1,1.4   c0,0.1,0,0.1,0,0.2v0.1c0,0.1,0,0.1,0,0.2c0,0.3-0.1,0.6-0.1,0.9c0,0.1,0,0.2,0,0.3c0,0.3-0.1,0.5-0.2,0.8s-0.1,0.6-0.2,1   c-0.1,0.3-0.1,0.6-0.2,1s-0.2,0.8-0.3,1.2" />
        <path class="st0"
              d="M18.5,1c1,0.1,1.9,0.4,2.8,0.7c1,0.3,2,0.8,2.9,1.4c1.2,0.8,2.3,1.7,3.2,2.8c0.2,0.3,0.5,0.6,0.7,0.9   c0,0,0,0,0,0.1c0.2,0.3,0.4,0.5,0.5,0.8c0,0.1,0.1,0.1,0.1,0.2c0.2,0.2,0.3,0.5,0.4,0.8" />
        <path class="st0"
              d="M3.7,9.8C4,8.9,4.4,8.2,4.9,7.4c0.4-0.6,0.9-1.2,1.4-1.8c0.5-0.5,1-1.1,1.6-1.5c0.5-0.5,1.2-0.9,1.8-1.2   c0.6-0.4,1.3-0.7,2-1s1.4-0.5,2.1-0.6" />
        <path class="st0" d="M1.3,19.8c0.9-1.5,1.4-3.1,1.4-5" />
        <path class="st0"
              d="M12.5,21.1c-0.2,0.7-0.5,1.4-0.8,2c-0.3,0.7-0.6,1.3-1,1.9s-0.8,1.2-1.2,1.8c-0.4,0.6-0.9,1.2-1.4,1.7" />
        <path class="st0"
              d="M19.9,14.2c-0.2-1.2-1.1-2.1-2.3-2.4c-0.3-0.1-0.6-0.1-0.9-0.1c-0.4,0-0.8,0.1-1.2,0.2c-1.2,0.5-2,1.6-2,3   c0,0.6,0,1.1-0.1,1.7" />
        <path class="st0"
              d="M14.6,30.9c0.5-0.7,0.9-1.3,1.4-2c0.4-0.7,0.8-1.4,1.2-2.1c0.4-0.7,0.7-1.5,1-2.3s0.5-1.6,0.8-2.4   c0.2-0.9,0.4-1.7,0.6-2.6c0.1-0.8,0.2-1.6,0.3-2.5" />
        <path class="st0"
              d="M16.6,22.4c-0.2,0.7-0.5,1.4-0.8,2.1s-0.6,1.4-1,2c-0.4,0.7-0.8,1.3-1.2,2c-0.4,0.6-0.9,1.3-1.4,1.9" />
        <path class="st0"
              d="M14.5,22.1c0.2-0.7,0.4-1.4,0.6-2.1c0.2-0.7,0.3-1.4,0.4-2.1c0.1-0.9,0.2-1.7,0.2-2.6c0-0.1,0-0.2,0-0.4   c0-0.1,0-0.5,0.1-0.5c0.2-0.3,0.5-0.5,0.9-0.5c0.6,0,1.1,0.5,1.1,1.1c0,1-0.1,2.1-0.2,3.1" />
        <path class="st0" d="M10.2,29.7c0.5-0.6,0.9-1.2,1.4-1.8c0.4-0.6,0.8-1.2,1.2-1.9" />
    </g>
</svg>
