<svg xmlns="http://www.w3.org/2000/svg" xmlns:xlink="http://www.w3.org/1999/xlink" width="120" height="120" preserveAspectRatio="xMidYMid meet" viewBox="0 0 24 24" style="-ms-transform: rotate(360deg); -webkit-transform: rotate(360deg); transform: rotate(360deg);"><g fill="none" stroke="currentColor" stroke-linejoin="round" stroke-width="2"><path stroke-linecap="round" d="M4 4v16a2 2 0 0 0 2 2h12a2 2 0 0 0 2-2V8.342a2 2 0 0 0-.602-1.43l-4.44-4.342A2 2 0 0 0 13.56 2H6a2 2 0 0 0-2 2Zm5 9h6m-6 4h3"/><path d="M14 2v4a2 2 0 0 0 2 2h4"/></g></svg>