<?xml version="1.0" encoding="UTF-8" standalone="no"?>
<svg
   width="100pt"
   height="100pt"
   version="1.1"
   viewBox="0 0 100 100"
   id="svg43"
   sodipodi:docname="cloud-100-intra.svg"
   inkscape:version="1.1.2 (b8e25be833, 2022-02-05)"
   xmlns:inkscape="http://www.inkscape.org/namespaces/inkscape"
   xmlns:sodipodi="http://sodipodi.sourceforge.net/DTD/sodipodi-0.dtd"
   xmlns="http://www.w3.org/2000/svg"
   xmlns:svg="http://www.w3.org/2000/svg">
  <defs
     id="defs47" />
  <sodipodi:namedview
     id="namedview45"
     pagecolor="#ffffff"
     bordercolor="#666666"
     borderopacity="1.0"
     inkscape:pageshadow="2"
     inkscape:pageopacity="0.0"
     inkscape:pagecheckerboard="0"
     inkscape:document-units="pt"
     showgrid="false"
     inkscape:zoom="12.72"
     inkscape:cx="77.319182"
     inkscape:cy="52.672956"
     inkscape:window-width="1848"
     inkscape:window-height="1057"
     inkscape:window-x="64"
     inkscape:window-y="-8"
     inkscape:window-maximized="1"
     inkscape:current-layer="svg43" />
  <g
     id="g41">
    <path
       d="m88.176 8.9727h-76.352c-2.7969 0-5.0664 2.2852-5.0664 5.0664v57.664c0 2.0938 1.2852 3.9062 3.0938 4.6758 0.60938 0.25781 1.2695 0.40625 1.9727 0.40625h31.027v6.2031h-0.71484c-3.5273 0-6.4336 2.6211-6.918 6.0117h-2.6367c-0.55469 0-1.0117 0.46094-1.0117 1.0117 0 0.55469 0.46094 1.0117 1.0117 1.0117h34.836c0.55469 0 1.0117-0.46094 1.0117-1.0117 0-0.55469-0.46094-1.0117-1.0117-1.0117h-2.6367c-0.5-3.3906-3.3906-6.0117-6.918-6.0117h-0.71484v-6.2031h31.027c2.7969 0 5.0664-2.2695 5.0664-5.0664v-57.68c0-2.7812-2.2695-5.0664-5.0664-5.0664zm-30.312 76.039c2.4062 0 4.4336 1.7148 4.8906 3.9883h-25.512c0.47266-2.2695 2.4883-3.9883 4.8906-3.9883zm-12.984-2.0234v-6.2031h10.242v6.2031zm46.336-11.285c0 1.6758-1.3633 3.0391-3.0391 3.0391h-76.352c-0.41797 0-0.8125-0.082032-1.1758-0.24219-1.0938-0.46094-1.8516-1.5391-1.8516-2.7969v-3.6758h82.434v3.6758zm0-5.6914h-82.434l0.003906-51.973c0-1.6758 1.3633-3.0391 3.0391-3.0391h76.352c1.6758 0 3.0391 1.3633 3.0391 3.0391z"
       id="path29" />
    <path
       d="m51.012 71.391c0 1.3516-2.0234 1.3516-2.0234 0s2.0234-1.3516 2.0234 0"
       id="path31" />
    <path
       d="m55.379 72.406c0.55469 0 1.0117-0.46094 1.0117-1.0117 0-0.55469-0.46094-1.0117-1.0117-1.0117-0.55469 0-1.0273 0.46094-1.0273 1.0117s0.46094 1.0117 1.0273 1.0117z"
       id="path33" />
    <path
       d="m44.621 72.406c0.55469 0 1.0117-0.46094 1.0117-1.0117 0-0.55469-0.46094-1.0117-1.0117-1.0117-0.55469 0-1.0273 0.46094-1.0273 1.0117s0.46094 1.0117 1.0273 1.0117z"
       id="path35" />
    <path
       d="m69.352 44.418c-1.4727 0-2.7148 0.97266-3.1367 2.2969h-2.6758c-0.1875 0-0.33594-0.14844-0.33594-0.33594v-5.8789h0.94531c4.4883 0 8.1367-3.6484 8.1367-8.1367s-3.6484-8.1367-8.1367-8.1367h-0.23047c-0.48828-2.7305-2.8633-4.7969-5.7305-4.7969-0.17578 0-0.35156 0.011718-0.51172 0.027343-1.1367-3.2305-4.1641-5.418-7.6758-5.418s-6.5391 2.1875-7.6758 5.418c-0.16406-0.011719-0.33594-0.027343-0.51172-0.027343-2.8359 0-5.2031 2.0391-5.7148 4.7969h-0.24219c-4.4883 0-8.1367 3.6484-8.1367 8.1367s3.6484 8.1367 8.1367 8.1367h0.94531v5.8789c0 0.1875-0.14844 0.33594-0.33594 0.33594h-2.6797c-0.43359-1.3359-1.6641-2.2969-3.1367-2.2969-1.8242 0-3.3125 1.4883-3.3125 3.3125s1.4883 3.3125 3.3125 3.3125c1.4727 0 2.7031-0.97266 3.1367-2.2969h2.6758c1.2969 0 2.3633-1.0664 2.3633-2.3633v-5.8789h5v6.8242c0 0.44531-0.17578 0.87891-0.5 1.1875l-4.1602 4.1875c-0.46094-0.23047-0.96094-0.37891-1.5-0.37891-1.8242 0-3.3125 1.4883-3.3125 3.3125s1.4883 3.3125 3.3125 3.3125c1.8242 0 3.3125-1.4883 3.3125-3.3125 0-0.53906-0.14844-1.0547-0.37891-1.5117l4.1758-4.1758c0.70312-0.70312 1.0938-1.6367 1.0938-2.6211v-6.8242h3.1367v17.027c-1.3242 0.43359-2.2969 1.6641-2.2969 3.1367 0 1.8242 1.4883 3.3125 3.3125 3.3125s3.3125-1.4883 3.3125-3.3125c0-1.4727-0.97266-2.7148-2.2969-3.1367v-17.027h3.1367v6.8242c0 0.98828 0.39062 1.918 1.0938 2.6211l4.1758 4.1758c-0.23047 0.46094-0.37891 0.96094-0.37891 1.5117 0 1.8242 1.4883 3.3125 3.3125 3.3125s3.3125-1.4883 3.3125-3.3125-1.4883-3.3125-3.3125-3.3125c-0.53906 0-1.0547 0.14844-1.5 0.37891l-4.1758-4.1758c-0.32422-0.32422-0.5-0.74219-0.5-1.1875v-6.8242h5v5.8789c0 1.2969 1.0664 2.3633 2.3633 2.3633h2.6523c0.43359 1.3242 1.6641 2.2969 3.1367 2.2969 1.8242 0 3.3125-1.4883 3.3125-3.3125 0.011719-1.8359-1.4766-3.3242-3.3125-3.3242zm-38.703 4.5938c-0.71484 0-1.2852-0.58203-1.2852-1.2852 0-0.71484 0.58203-1.2852 1.2852-1.2852 0.70312 0 1.2852 0.58203 1.2852 1.2852 0 0.70703-0.58203 1.2852-1.2852 1.2852zm7 7.9062c-0.71484 0-1.2852-0.58203-1.2852-1.2852 0-0.71484 0.58203-1.2852 1.2852-1.2852 0.70312 0 1.2852 0.58203 1.2852 1.2852 0.011718 0.70313-0.57031 1.2852-1.2852 1.2852zm24.703-2.5664c0.71484 0 1.2852 0.58203 1.2852 1.2852s-0.58203 1.2852-1.2852 1.2852c-0.70312 0-1.2852-0.58203-1.2852-1.2852-0.011718-0.71875 0.57031-1.2852 1.2852-1.2852zm-11.055 6.3242c0 0.70312-0.58203 1.2852-1.2852 1.2852s-1.2852-0.58203-1.2852-1.2852c0-0.71484 0.58203-1.2852 1.2852-1.2852s1.2852 0.57031 1.2852 1.2852zm-15.445-22.203c-3.3633 0-6.1094-2.7422-6.1094-6.1094 0-3.3633 2.7422-6.1094 6.1094-6.1094 0.32422 0 0.66406 0.027344 0.96094 0.09375 0.29688 0.054688 0.60938-0.082031 0.83594-0.26953 0.23047-0.1875 0.36328-0.52734 0.36328-0.83594 0-2.082 1.7031-3.7852 3.7852-3.7852 0.36328 0 0.66406 0.039063 0.93359 0.12109s0.56641 0.054687 0.8125-0.09375c0.24219-0.13672 0.41797-0.37891 0.48828-0.64844 0.63672-2.8125 3.082-4.7695 5.9727-4.7695s5.3516 1.9609 5.9727 4.7695c0.066407 0.26953 0.23047 0.51172 0.47266 0.64844 0.24219 0.13672 0.53906 0.17578 0.8125 0.09375 0.28516-0.082031 0.58203-0.12109 0.94531-0.12109 2.0938 0 3.7969 1.7031 3.7969 3.8906 0 0.29688 0.13672 0.58203 0.36328 0.78516 0.23047 0.1875 0.53906 0.28516 0.83594 0.21484 0.32422-0.054687 0.63672-0.09375 0.97266-0.09375 3.3633 0 6.1094 2.7422 6.1094 6.1094 0 3.3633-2.7422 6.1094-6.1094 6.1094zm33.5 10.539c-0.71484 0-1.2852-0.58203-1.2852-1.2852 0-0.71484 0.58203-1.2852 1.2852-1.2852 0.70313 0 1.2852 0.58203 1.2852 1.2852 0.011719 0.70703-0.57031 1.2852-1.2852 1.2852z"
       id="path37" />
    <path
       d="m56.512 26.742c0.55469 0 1.0117-0.46094 1.0117-1.0117 0-0.55469-0.46094-1.0117-1.0117-1.0117h-1.2422c-0.23047-0.43359-0.58203-0.79688-1.0117-1.0117v-1.2422c0-0.55469-0.46094-1.0117-1.0117-1.0117-0.55469 0-1.0117 0.46094-1.0117 1.0117v0.97266h-1.2148v-0.97266c0-0.55469-0.46094-1.0117-1.0117-1.0117-0.55469 0-1.0117 0.46094-1.0117 1.0117v0.97266h-1.2305v-0.97266c0-0.55469-0.46094-1.0117-1.0117-1.0117-0.55469 0-1.0117 0.46094-1.0117 1.0117v1.2422c-0.43359 0.23047-0.79688 0.58203-1.0117 1.0117h-1.2422c-0.55469 0-1.0117 0.46094-1.0117 1.0117 0 0.55469 0.46094 1.0117 1.0117 1.0117h0.97266v1.2305h-0.97266c-0.55469 0-1.0117 0.46094-1.0117 1.0117 0 0.55469 0.46094 1.0117 1.0117 1.0117h0.97266v1.2305h-0.97266c-0.55469 0-1.0117 0.46094-1.0117 1.0117 0 0.55469 0.46094 1.0117 1.0117 1.0117h1.2305c0.23047 0.43359 0.58203 0.79688 1.0117 1.0117v1.2305c0 0.55469 0.46094 1.0117 1.0117 1.0117 0.55469 0 1.0117-0.46094 1.0117-1.0117v-0.97266h1.2305v0.97266c0 0.55469 0.46094 1.0117 1.0117 1.0117 0.55469 0 1.0117-0.46094 1.0117-1.0117v-0.97266h1.2148v0.97266c0 0.55469 0.46094 1.0117 1.0117 1.0117 0.55469 0 1.0117-0.46094 1.0117-1.0117v-1.2305c0.43359-0.23047 0.79688-0.58203 1.0117-1.0117h1.2305c0.55469 0 1.0117-0.46094 1.0117-1.0117 0-0.55469-0.46094-1.0117-1.0117-1.0117l-0.94922 0.003907v-1.2305h0.97266c0.55469 0 1.0117-0.46094 1.0117-1.0117 0-0.55469-0.46094-1.0117-1.0117-1.0117l-0.97266-0.003906v-1.2305zm-3 5.4453c0 0.16406-0.13672 0.3125-0.3125 0.3125h-3.2031-0.011719-0.011719-3.2031c-0.16406 0-0.3125-0.13672-0.3125-0.3125v-6.418c0-0.16406 0.13672-0.3125 0.3125-0.3125h6.418c0.16406 0 0.3125 0.13672 0.3125 0.3125v6.418z"
       id="path39" />
  </g>
  <path
     style="fill:#ff8080;stroke-width:0.157233"
     d="m 62.222346,43.186455 c -0.154571,-0.09811 -0.189698,-1.125058 -0.157233,-4.596649 l 0.04181,-4.470309 h 4.559749 4.559748 l 0.04183,4.383365 c 0.02961,3.102612 -0.01047,4.446388 -0.137177,4.599057 -0.143726,0.173179 -1.019689,0.215217 -4.444347,0.213283 -2.345936,-0.0013 -4.354905,-0.05926 -4.464376,-0.128747 z"
     id="path240"
     transform="scale(0.75)" />
  <path
     style="fill:#ff8080;stroke-width:0.157233"
     d="m 40.222439,65.098762 c -0.55285,-0.239025 -0.992879,-0.941324 -0.992879,-1.584665 0,-0.264151 0.195636,-0.612249 0.534591,-0.951204 0.709124,-0.709124 1.486204,-0.739244 2.142407,-0.08304 0.598469,0.598468 0.71392,1.121479 0.395626,1.792235 -0.392311,0.826733 -1.271401,1.176161 -2.079745,0.826674 z"
     id="path279"
     transform="scale(0.75)" />
  <path
     style="fill:#ff8080;stroke-width:0.157233"
     d="m 49.510671,75.616211 c -1.582655,-0.780799 -0.965088,-3.053318 0.829754,-3.053318 0.243631,0 0.606383,0.207815 0.93316,0.534591 0.886582,0.886582 0.654065,2.064637 -0.502921,2.548056 -0.643748,0.268975 -0.655912,0.268692 -1.259993,-0.02933 z"
     id="path318"
     transform="scale(0.75)" />
  <path
     style="fill:#ff8080;stroke-width:0.157233"
     d="m 65.6114,82.012946 c -0.421976,-0.377035 -0.509913,-0.569621 -0.509913,-1.11672 0,-1.364352 1.697518,-2.104654 2.647553,-1.154619 0.741111,0.741111 0.741111,1.568128 0,2.309239 -0.591072,0.591071 -1.450757,0.575829 -2.13764,-0.0379 z"
     id="path357"
     transform="scale(0.75)" />
  <path
     style="fill:#ff8080;stroke-width:0.157233"
     d="m 82.360664,75.55814 c -1.023476,-0.624057 -1.136754,-1.624818 -0.280802,-2.48077 0.498545,-0.498544 0.619171,-0.546058 1.191449,-0.469299 0.759693,0.101896 1.168059,0.435824 1.402799,1.147093 0.233072,0.706214 -0.145231,1.51974 -0.865683,1.861617 -0.671433,0.318616 -0.840265,0.311777 -1.447763,-0.05864 z"
     id="path396"
     transform="scale(0.75)" />
  <path
     style="fill:#ff8080;stroke-width:0.157233"
     d="m 92.111146,65.220809 c -0.475137,-0.09255 -1.11278,-0.769086 -1.230641,-1.305705 -0.198044,-0.901691 0.649351,-1.886802 1.623034,-1.886802 0.674903,0 1.600235,0.859157 1.600235,1.485795 0,0.659921 -0.444601,1.349118 -1.027406,1.592629 -0.294152,0.122905 -0.554782,0.213827 -0.579179,0.20205 -0.0244,-0.01178 -0.198117,-0.05136 -0.386043,-0.08797 z"
     id="path435"
     transform="scale(0.75)" />
  <path
     style="fill:#ff8080;stroke-width:0.0555902"
     d="m 62.971378,43.224804 c -0.399681,-0.01974 -0.706074,-0.06028 -0.744265,-0.09847 -0.127127,-0.127128 -0.162009,-1.586555 -0.125612,-5.255542 l 0.03681,-3.710643 h 4.516327 4.516327 l 0.03908,1.1257 c 0.04813,1.386537 0.0075,7.528575 -0.05094,7.695392 -0.0549,0.156767 -0.114074,0.176518 -0.720319,0.240405 -0.540014,0.05691 -6.329576,0.05935 -7.467403,0.0032 z"
     id="path474"
     transform="scale(0.75)" />
  <path
     style="fill:#ff8080;stroke-width:0.00982704"
     d="m 62.301427,43.322423 c -0.166909,-0.02439 -0.314577,-0.168972 -0.34596,-0.338738 -0.0076,-0.04114 -0.01065,-1.297202 -0.01052,-4.348009 1.86e-4,-4.683362 -0.0037,-4.369683 0.05537,-4.470473 0.06245,-0.106558 0.16607,-0.183687 0.278581,-0.207355 0.04058,-0.0085 1.135529,-0.01063 4.392688,-0.0084 l 4.33864,0.003 0.06642,0.03146 c 0.118109,0.05595 0.207167,0.160764 0.239205,0.281532 0.01125,0.04241 0.01348,0.756731 0.01379,4.408789 l 3.61e-4,4.358182 -0.02953,0.05998 c -0.05879,0.119426 -0.184972,0.211576 -0.315548,0.23045 -0.07627,0.01102 -8.607984,0.01062 -8.683486,-4.07e-4 z m 7.052936,-0.01951 c 1.132656,-0.02443 1.583373,-0.06764 1.744597,-0.167287 0.0456,-0.02819 0.06985,-0.08507 0.09215,-0.216202 0.09521,-0.559865 0.108305,-2.020628 0.06024,-6.721508 -0.0108,-1.056653 -0.01973,-1.95767 -0.01983,-2.00226 l -1.9e-4,-0.08107 h -4.564662 -4.564662 l -2.11e-4,0.08599 c -1.16e-4,0.04729 -0.0091,0.961576 -0.01996,2.031741 -0.02605,2.566206 -0.03507,5.083766 -0.02021,5.640724 0.01958,0.733983 0.04714,1.058637 0.104789,1.234339 0.02922,0.08904 0.0546,0.09851 0.324415,0.121041 0.472789,0.03948 1.49685,0.06976 2.854103,0.0844 0.895022,0.0097 3.387967,0.0035 4.009434,-0.0099 z"
     id="path552"
     transform="scale(0.75)" />
  <path
     style="fill:#ff8080;stroke-width:0.0196541"
     d="m 49.843961,75.842171 c -0.61483,-0.131779 -1.113728,-0.608789 -1.291931,-1.235253 -0.06424,-0.22583 -0.06431,-0.638459 -1.52e-4,-0.86478 0.166693,-0.588003 0.621898,-1.042824 1.213089,-1.212068 0.206078,-0.059 0.636164,-0.06353 0.834483,-0.0088 0.647691,0.178738 1.1333,0.686992 1.269301,1.328491 0.0365,0.172156 0.03494,0.498386 -0.0033,0.684289 -0.132916,0.646731 -0.667979,1.173908 -1.329082,1.309494 -0.187321,0.03842 -0.509791,0.03778 -0.692442,-0.0014 z m 0.588429,-0.05271 c 0.422825,-0.14622 0.716238,-0.309063 0.937134,-0.520107 0.286364,-0.27359 0.427254,-0.574603 0.44395,-0.948501 0.01153,-0.258213 -0.03338,-0.458125 -0.160912,-0.716288 -0.210122,-0.425351 -0.688313,-0.86418 -1.097099,-1.006792 -0.12889,-0.04497 -0.161782,-0.04864 -0.339268,-0.03789 -0.473567,0.02868 -0.853758,0.203294 -1.169418,0.537097 -0.157386,0.166432 -0.250705,0.307985 -0.326106,0.494658 -0.09578,0.23712 -0.116099,0.350612 -0.114929,0.641859 10e-4,0.25755 0.0052,0.287105 0.065,0.461871 0.110383,0.322559 0.321846,0.60255 0.595353,0.788285 0.143607,0.09752 0.56452,0.304785 0.69476,0.342108 0.128189,0.03674 0.298177,0.02365 0.471535,-0.0363 z"
     id="path591"
     transform="scale(0.75)" />
  <path
     style="fill:#ff8080;stroke-width:0.0196541"
     d="m 66.342374,82.568251 c -0.377316,-0.08386 -0.726893,-0.297849 -0.973979,-0.5962 -0.124945,-0.150868 -0.287233,-0.46455 -0.337975,-0.653262 -0.04864,-0.180876 -0.04734,-0.666099 0.0022,-0.845125 0.255305,-0.921633 1.207412,-1.469562 2.101699,-1.209508 0.296834,0.08632 0.508313,0.208647 0.728019,0.421121 0.500288,0.483822 0.655828,1.206173 0.397049,1.843962 -0.206537,0.509036 -0.660371,0.899805 -1.193439,1.027599 -0.188656,0.04523 -0.54612,0.05087 -0.723622,0.01141 z m 0.780233,-0.13176 c 0.363185,-0.112037 0.677581,-0.360201 0.921871,-0.727665 0.184299,-0.277226 0.262724,-0.519793 0.262724,-0.812599 0,-0.320596 -0.105228,-0.609447 -0.330565,-0.907403 -0.22927,-0.303155 -0.469242,-0.489757 -0.776057,-0.603458 -0.153262,-0.0568 -0.17464,-0.05952 -0.474951,-0.06047 -0.276582,-8.76e-4 -0.332106,0.0045 -0.460902,0.04499 -0.650053,0.204136 -1.087871,0.714375 -1.159519,1.351319 -0.02527,0.224653 0.0017,0.570107 0.0568,0.727036 0.05628,0.160334 0.151295,0.291243 0.351391,0.484136 0.314883,0.303548 0.610138,0.466174 0.976376,0.537786 0.17892,0.03498 0.458489,0.02011 0.632827,-0.03367 z"
     id="path630"
     transform="scale(0.75)" />
  <path
     style="fill:#ff8080;stroke-width:0.0196541"
     d="m 40.566038,65.311826 c -0.650225,-0.129269 -1.144289,-0.580691 -1.339445,-1.223843 -0.046,-0.151593 -0.0525,-0.206782 -0.05281,-0.448046 -2.8e-4,-0.223043 0.0078,-0.304736 0.04264,-0.431329 0.13226,-0.480569 0.457066,-0.875895 0.897571,-1.092447 0.286756,-0.140969 0.483953,-0.182795 0.805817,-0.170915 0.305243,0.01127 0.426119,0.04118 0.687893,0.170211 0.35035,0.172698 0.604928,0.427275 0.777625,0.777625 0.129036,0.261774 0.158946,0.382651 0.170212,0.687893 0.0079,0.213938 0.0027,0.283644 -0.03177,0.428486 -0.148371,0.622937 -0.620693,1.108085 -1.239942,1.273612 -0.193246,0.05166 -0.533941,0.0653 -0.71779,0.02875 z m 0.595365,-0.101215 c 0.524256,-0.107745 0.966889,-0.491383 1.190031,-1.031421 0.257156,-0.62236 0.134623,-1.117874 -0.41464,-1.676769 -0.479118,-0.487519 -0.98942,-0.619872 -1.535094,-0.398144 -0.413702,0.168102 -0.927585,0.677391 -1.110989,1.101056 -0.05523,0.127576 -0.06043,0.157828 -0.05948,0.346161 0.0033,0.66171 0.460267,1.349697 1.048045,1.577932 0.286538,0.111263 0.596827,0.13982 0.882129,0.08119 z"
     id="path669"
     transform="scale(0.75)" />
  <path
     style="fill:#ff8080;stroke-width:0.0196541"
     d="m 82.922909,75.872971 c -0.367056,-0.04996 -0.710572,-0.224532 -0.985016,-0.500571 -0.253221,-0.254693 -0.405564,-0.535605 -0.472972,-0.872136 -0.05148,-0.256985 -0.03207,-0.603077 0.04745,-0.846569 0.182538,-0.558868 0.619992,-0.966881 1.203667,-1.122657 0.228324,-0.06094 0.605725,-0.06086 0.833485,1.74e-4 0.520724,0.139537 0.953003,0.513398 1.15842,1.001872 0.154398,0.36715 0.168769,0.804747 0.03896,1.186393 -0.258363,0.759617 -1.048182,1.259097 -1.824002,1.153494 z m 0.402367,-0.05574 c 0.174182,-0.04512 0.509831,-0.191848 0.663725,-0.290155 0.257939,-0.16477 0.462995,-0.393762 0.601594,-0.671816 0.108044,-0.216756 0.151987,-0.405702 0.153747,-0.661078 0.0019,-0.270665 -0.04222,-0.441248 -0.195245,-0.755448 -0.09697,-0.199112 -0.128881,-0.244072 -0.279366,-0.393639 -0.257931,-0.256359 -0.529842,-0.378475 -0.983677,-0.441774 -0.560787,-0.07822 -0.719213,-0.02126 -1.157701,0.416192 -0.506886,0.505691 -0.703181,0.986228 -0.604721,1.480376 0.09728,0.488249 0.467183,0.897172 1.102154,1.218429 0.278568,0.140938 0.445887,0.164598 0.69949,0.09891 z"
     id="path708"
     transform="scale(0.75)" />
  <path
     style="fill:#ff8080;stroke-width:0.0196541"
     d="m 92.128538,65.303105 c -0.532141,-0.117406 -0.955694,-0.450358 -1.189276,-0.934884 -0.04719,-0.09788 -0.100186,-0.231035 -0.117773,-0.295894 -0.04487,-0.165458 -0.06068,-0.549826 -0.02979,-0.724333 0.108141,-0.611082 0.558384,-1.12948 1.155169,-1.330031 0.168658,-0.05668 0.223148,-0.06543 0.45683,-0.07337 0.223119,-0.0076 0.29285,-0.0024 0.438313,0.0323 1.072614,0.256206 1.636975,1.431577 1.155855,2.40725 -0.218856,0.443822 -0.614996,0.76879 -1.092989,0.896618 -0.226968,0.0607 -0.559151,0.07026 -0.776336,0.02234 z m 0.742979,-0.105597 c 0.33011,-0.127257 0.454607,-0.199057 0.637566,-0.367698 0.375129,-0.345773 0.590767,-0.810477 0.593179,-1.278316 8.61e-4,-0.16695 -0.0073,-0.228547 -0.04254,-0.32248 -0.176904,-0.47111 -0.707759,-0.97284 -1.212949,-1.146398 -0.137028,-0.04708 -0.18691,-0.0541 -0.374293,-0.05274 -0.244262,0.0018 -0.394217,0.03495 -0.611672,0.135309 -0.446765,0.206187 -0.780171,0.573361 -0.946156,1.041984 -0.06644,0.18759 -0.08335,0.54933 -0.03446,0.737406 0.11888,0.457327 0.588127,1.012475 1.024789,1.212385 0.136547,0.06251 0.546651,0.162766 0.628928,0.153746 0.03379,-0.0037 0.185708,-0.05464 0.337603,-0.113199 z"
     id="path747"
     transform="scale(0.75)" />
</svg>
